<?xml version="1.0" encoding="UTF-8"?><svg id="Layer_2" xmlns="http://www.w3.org/2000/svg" viewBox="0 0 542.28 253.8"><defs><style>.cls-1{fill:#242124;stroke-width:0px;}</style></defs><g id="Layer_1-2"><path class="cls-1" d="m112.89,152.72c.43,3.64-2.03,10.47-7.37,20.51-5.64,10.47-10.27,15.49-13.88,15.05-4.34-.58-13.52-9.23-27.54-25.96-15.62-18.76-25.23-29.38-28.85-31.85v40.14c0,.87.43,2.4,1.3,4.58.87,2.18,1.37,3.78,1.52,4.8.72,5.81-.51,9.6-3.69,11.34-1.45.87-3.83,1.31-7.16,1.31-6.36,0-12.58-1.24-18.65-3.71-6.8-2.76-12.83-5.76.86-11.15l-1.1-160.63c-9.95-.27-9.02-3.36-7.14-6.78,1.88-3.41,3.97-5.56,6.29-6.43.43-.14,1.08-.22,1.95-.22,4.19,0,10.16,1.6,17.89,4.8,7.73,3.2,11.96,5.89,12.69,8.07.29,1.02-.43,6.33-2.17,15.93-1.88,10.91-2.17,19.23-2.82,24.87-.3,2.61-.86,15.46-.71,16.91L72.55,4.81C74.72,1.47,77.47-.13,80.8,0c3.61.15,8.96,2.47,16.05,6.98,7.95,5.24,12,10.18,12.15,14.83,0,1.31-12.5-5.02-24.07,9.96-14.61,18.62-19.31,49.52-38.05,69.86l43.81,50.61c11.52-4.92,13.83-3.97,17.45-3.25,3.04.73,4.63,1.96,4.77,3.71Z"/><path class="cls-1" d="m541.86,45.46c.28,1.16.43,2.24.43,3.24,0,2.45-1.07,4.97-3.22,7.57-2.48,3.02-4.01,5.2-4.59,6.55-.11.25-.17.5-.21.76-.87,4.66-9.24,49.43-11.53,66.81-2.2,16.73-10.7,62.82-12.47,72.36-.23,1.24-1,2.15-2.11,2.91-11.51,7.91-85.49,39.29-160.47,47.54-59.91,6.59-127.26-42.97-153.27-60.54-7.3-4.93-8.85,1.58-8.97,1.85-2.81,6.3,11.35,10.2,12.06,10.52,4.03,1.81,10.19,4.66,6.23,6.5-.72.14-1.5.22-2.36.22-3.87,0-8.67-1.05-14.4-3.13-5.73-2.09-9.71-4.18-11.93-6.27-2.22-2.09-2.8-4.35-3.33-6.59-.51-2.18.02-5.05,2.22-8.24,1.45-2.09,3.07-3.45,7.57-4.35,5.49-1.11,10.78.96,15.59,3.83,19.64,11.7,79.94,53.17,146.2,48.69,70.05-4.74,126.78-49.54,130.29-53.59,3.14-3.61,9-9.59,9.54-15.31.61-6.41-.4-12.86-1.4-15.67-.35-.99-.85-1.74-1.36-2.65l-47.24-85.26c-.29-.57-.04-4.74-3.87-4.32-2.62.29-3.08-4.75-3.65-8.64-.29-1.73,3.47-4.79,11.28-9.19,7.81-4.39,13.93-6.59,18.37-6.59,1.14,0,2.07.22,2.79.65,2.24,1.27,3.94,3.65,5.09,7.13.05.14.18.3.12.43-2.12,4.34,1.41,5.87,2.21,8.72.07.24.16.47.26.7l24.73,51.68c1.81,3.79,7.45,2.86,7.95-1.31l6.21-51.84c.03-.25.08-.5.16-.75.83-2.76,1.72-5.52,2.68-8.28,1-2.88,2.5-4.68,4.51-5.4,1.29-.43,2.86-.65,4.73-.65,4.73,0,9.95,1.12,15.69,3.35,5.73,2.24,8.88,4.43,9.45,6.59Z"/><path class="cls-1" d="m197.3,148.42c1.23,2.07-5.61,8.36-12.2,18.57-7.13,10.9-15.69,15.71-22.55,19.58-.82.41-2.06.62-3.7.62-5.35,0-6.6.75-15.24-2.56-9.19-3.31-15.22-6.89-18.1-10.76-7.95-10.34-11.93-24.69-11.93-43.04,0-17.38,3.5-32.69,10.49-45.93,7.54-14.48,17.14-21.86,28.8-22.14,4.25-.14,9.39.97,15.43,3.31,7.41,2.9,13.51,6.83,18.31,11.79,1.23,1.24,2.4,4.97,3.5,11.17,1.37,6.62,2.06,13.11,2.06,19.45,0,9.38-1.51,15.86-4.53,19.45-14.13,4.55-31.52,6.99-46.19,7.53-.28,6.76-.73,15.35,1.19,22.8,1.92,7.45,8.18,9.88,10.23,10.01,2.74.14,6.03-2.14,9.87-6.83,3.43-4,5.55-7.38,6.38-10.14.96-4.14,2.26-8.41,3.91-12.83,2.19-.27,6.51.83,12.96,3.31,6.44,2.48,10.21,4.69,11.31,6.62Zm-36.61-63.31c-2.33-.27-11.09-1.26-15.27,6.46-4.19,7.73-1.12,19.82-1.8,26.85,6.17-.27,11.11-1.79,14.81-4.55,2.19-1.65,3.29-8.55,3.29-20.69,0-5.1-.34-7.79-1.03-8.07Z"/><path class="cls-1" d="m447.83,171.85c-.35,1.43-2.37,2.49-2.1,3.28.68,1.97,3.82,2.9,3.82,4.95,0,4.33-1.65,7.29-4.95,8.88-1.01.43-2.8.65-5.38.65-4.88,0-10.69-.76-17.44-2.27-6.75-1.51-10.84-3-12.27-4.44-.72-.86-1.08-1.8-1.08-2.81,0-1.59,1.08-4.15,3.23-7.69,2.15-3.53,2.94-6.12,3.23-7.69,9.88-53.73-4.6-69.15-9.18-72.4-2.01-.72-14.93-6.92-22.83,6.79-6.61,11.46-10.77,19.99-14.15,27.88-1.84,4.3-2.81,8.93-2.81,13.61v17.04s0,14.66,0,14.66c6.34,1.88,8.38-.35,7.28,6.93-.82,5.43-2.44,9.24-7.32,11.26-.58.29-1.44.43-2.58.43-3.88,0-9.55-.9-17.01-2.71-7.46-1.81-11.62-3.28-12.49-4.44-.86-1.15-1.29-2.45-1.29-3.9s.83-3.17,2.48-5.2c1.65-2.02,2.48-3.32,2.48-3.9v-100.69c0-1.15-.58-2.67-1.72-4.55-1.15-1.88-1.51-3.46-1.08-4.76.86-3.03,3.08-4.98,6.67-5.85,2.3-.58,7.68.22,16.15,2.38,9.18,2.31,14.21,4.69,15.07,7.15.57,1.59.36,3.97-.65,7.15-1.58,5.05-2.2,7.96-2.37,8.66-.32,1.31-2.55,7.77-3.28,11.64-.09.5.61.71.81.24,3.22-7.64,11.45-19.64,15.6-24.14.42-.45.83-.89,1.25-1.31,7.37-7.57,18.74-9.87,28.45-5.7.08.03.16.07.23.1.55.24,1.09.48,1.61.73,6.64,3.11,12.29,8.01,16.5,14.02,9.64,13.79,29.33,46.93,17.14,96.01Z"/><path class="cls-1" d="m324.1,171.3c-.35,1.43-2.37,2.49-2.1,3.28.68,1.97,3.82,2.9,3.82,4.95,0,4.33-1.65,7.29-4.95,8.88-1.01.43-2.8.65-5.38.65-4.88,0-10.69-.76-17.44-2.27-6.75-1.51-10.84-3-12.27-4.44-.72-.86-1.08-1.8-1.08-2.81,0-1.59,1.08-4.15,3.23-7.69,2.15-3.53,2.94-6.12,3.23-7.69,9.88-53.73-4.6-69.15-9.18-72.4-2.01-.72-14.93-6.92-22.83,6.79-6.61,11.46-10.77,19.99-14.15,27.88-1.84,4.3-2.81,8.93-2.81,13.61v17.04s0,14.66,0,14.66c6.34,1.88,8.38-.35,7.28,6.93-.82,5.43-2.44,9.24-7.32,11.26-.58.29-1.44.43-2.58.43-3.88,0-9.55-.9-17.01-2.71-7.46-1.81-11.62-3.28-12.49-4.44-.86-1.15-1.29-2.45-1.29-3.9s.83-3.17,2.48-5.2c1.65-2.02,2.48-3.32,2.48-3.9v-100.69c0-1.15-.58-2.67-1.72-4.55-1.15-1.88-1.51-3.46-1.08-4.76.86-3.03,3.08-4.98,6.67-5.85,2.3-.58,7.68.22,16.15,2.38,9.18,2.31,14.21,4.69,15.07,7.15.57,1.59.36,3.97-.65,7.15-1.58,5.05-2.2,7.96-2.37,8.66-.32,1.31-2.55,7.77-3.28,11.64-.09.5.61.71.81.24,3.22-7.64,11.45-19.64,15.6-24.14.42-.45.83-.89,1.25-1.31,7.37-7.57,18.74-9.87,28.45-5.7.08.03.16.07.23.1.55.24,1.09.48,1.61.73,6.64,3.11,12.29,8.01,16.5,14.02,9.64,13.79,29.33,46.93,17.14,96.01Z"/><ellipse class="cls-1" cx="270.65" cy="149.75" rx="8.28" ry="24.65"/><ellipse class="cls-1" cx="392.54" cy="150.08" rx="8.28" ry="24.65"/></g></svg>